PathFileType	4	(X/Y/Z)	/Users/mathieubourgeois/Desktop/Analyse/Traitement/Sujet_03/Data/Transformed_Sujet_03_velo_80.trc
DataRate	CameraRate	NumFrames	NumMarkers	Units	OrigDataRate	OrigDataStartFrame	OrigNumFrames
120.000000	120.000000	4	36	mm	120.000000	700	1868
Frame#	Time	RFHD			LFHD			RBHD			LBHD			C7			CLAV			RSHO			LSHO			STRN			T10			RBWT			LBWT			RFWT			LFWT			RKNI			LKNI			RKNE			LKNE			LANI			RANI			LANE			RANE			LTOE			RTOE			LHEE			RHEE			RHUM			LHUM			RRAD			LRAD			RWRA			RWRB			LWRA			LWRB			LCAR			RCAR			
		X1	Y1	Z1	X2	Y2	Z2	X3	Y3	Z3	X4	Y4	Z4	X5	Y5	Z5	X6	Y6	Z6	X7	Y7	Z7	X8	Y8	Z8	X9	Y9	Z9	X10	Y10	Z10	X11	Y11	Z11	X12	Y12	Z12	X13	Y13	Z13	X14	Y14	Z14	X15	Y15	Z15	X16	Y16	Z16	X17	Y17	Z17	X18	Y18	Z18	X19	Y19	Z19	X20	Y20	Z20	X21	Y21	Z21	X22	Y22	Z22	X23	Y23	Z23	X24	Y24	Z24	X25	Y25	Z25	X26	Y26	Z26	X27	Y27	Z27	X28	Y28	Z28	X29	Y29	Z29	X30	Y30	Z30	X31	Y31	Z31	X32	Y32	Z32	X33	Y33	Z33	X34	Y34	Z34	X35	Y35	Z35	X36	Y36	Z36	

701	5.833333333333333	154.0957946777344	1563.871459960938	112.3115692138671	138.449462890625	1562.7763671875	-40.16911697387703	41.97849273681639	1633.620239257812	126.8345565795897	17.757719039917	1648.427734375	-20.03243255615244	-103.2819061279297	1549.988891601562	51.63158798217763	-67.58000946044922	1397.33447265625	46.96828079223624	-44.34596633911136	1482.131225585938	219.6615447998046	-72.73413085937499	1509.014282226562	-131.9963378906251	-169.9529571533203	1260.815673828125	45.41775512695303	-319.344970703125	1453.997436523438	46.20090866088854	-522.1233520507812	1270.663330078125	115.3083724975585	-525.2190551757812	1263.543823242188	-6.698215484619282	-373.4700622558594	1203.936767578125	174.5218200683592	-381.0887451171875	1179.9423828125	-68.63994598388683	-39.81360244750978	934.3800659179688	135.8110046386718	-213.7040557861328	670.5619506835938	-45.66771697998054	-47.12407302856448	968.0301513671875	248.6718749999999	-218.6664733886718	721.1241455078125	-155.238250732422	-316.6472778320312	307.498291015625	-52.53701400756842	-253.1968688964844	636.0203247070312	123.8193359374999	-342.0511169433594	287.1134338378906	-138.2224578857422	-278.7737731933594	617.7667846679688	208.9485778808593	-176.1071624755859	149.3878936767578	-99.46639251708989	-109.4439468383789	498.5377197265625	153.0477294921875	-410.1589660644531	281.6668701171875	-91.82015228271491	-356.4279479980469	613.2866821289062	162.810333251953	27.84662818908689	1185.592529296875	245.0522918701171	16.34793472290041	1200.177856445312	-142.9232025146485	81.90713500976558	1211.050659179688	300.1431884765624	64.47747039794925	1233.8173828125	-200.2680969238282	284.7054443359375	1040.341186523438	218.4546813964843	272.3839111328124	1028.161743164062	299.0169067382812	251.970458984375	1059.560180664062	-126.7745208740235	230.8195953369141	1047.476440429688	-203.7796325683594	329.6451110839844	1033.6669921875	-220.8550109863282	375.2955017089843	1029.578735351562	301.5513305664062	
702	5.841666666666667	154.0729827880859	1563.50146484375	112.2088470458984	138.3756408691406	1562.302490234375	-40.26643371582039	41.97834014892577	1633.294067382812	126.7120742797851	17.73409080505371	1648.039428710938	-20.15724372863779	-103.3471221923828	1549.79736328125	51.6603889465331	-67.81183624267578	1397.075561523438	47.00130844116202	-44.24845886230472	1482.127197265625	219.4947052001952	-72.9407272338867	1508.841796875	-131.8648529052735	-170.3868408203125	1260.744995117188	45.57769393920888	-319.5116271972656	1454.092163085938	46.59047317504869	-522.5655517578125	1270.788818359375	115.4453811645506	-525.5512084960938	1263.804565429688	-6.470082283020161	-374.3039855957031	1204.610107421875	176.1886138916014	-381.362060546875	1180.303344726562	-68.32518005371105	-38.82566833496095	935.5072631835938	134.7754821777343	-214.0778503417969	671.3170776367188	-45.97453689575202	-46.7106742858887	969.7135620117188	247.568862915039	-218.1493988037109	721.8724365234375	-155.572738647461	-326.9994201660156	311.4687194824219	-53.13746643066413	-244.4041442871094	631.4574584960938	124.0913162231445	-352.48095703125	291.3674926757812	-138.7913818359376	-269.159423828125	612.7373046875	209.534683227539	-188.6583709716797	151.9766693115234	-99.2107315063477	-97.73032379150392	497.0858154296875	152.7464294433593	-421.0574645996094	287.1167907714844	-92.8931961059571	-346.9561767578125	605.9369506835938	162.9435119628906	27.92689704895017	1185.621459960938	245.040069580078	16.13038635253908	1200.02880859375	-142.8532104492188	82.02487182617183	1211.132934570312	300.1151733398437	64.2202072143555	1233.668701171875	-200.256805419922	284.7304382324219	1040.328857421875	218.3674774169922	272.4352416992187	1028.158325195312	298.931640625	251.8982238769532	1059.572021484375	-126.8165512084961	230.7312927246094	1047.48095703125	-203.7988739013672	329.5550231933594	1033.721557617188	-220.9318084716797	375.3344116210937	1029.59033203125	301.4717102050781	
703	5.85	153.9985809326172	1563.067016601562	112.0140304565429	138.1872406005859	1561.79443359375	-40.46061706542977	41.9611358642578	1632.953857421875	126.5451354980468	17.65010643005371	1647.638793945312	-20.32777404785166	-103.4842529296875	1549.610229492188	51.62810134887685	-68.12750244140625	1396.793701171875	46.98449325561514	-44.25336074829104	1482.140380859375	219.2966156005859	-73.2006378173828	1508.596557617188	-131.7579956054688	-170.8319549560547	1260.608032226562	45.71376800537099	-319.7632141113281	1454.207397460938	46.93080139160143	-523.064697265625	1270.82275390625	115.5072784423827	-525.9124145507812	1264.020751953125	-6.303168296814107	-374.8578491210938	1204.8369140625	176.6356506347655	-381.5305786132812	1180.620971679688	-68.05360412597668	-38.14169311523439	935.7227172851562	133.7925872802734	-213.7668151855469	672.5038452148438	-46.42391967773445	-46.6332931518555	970.3482666015625	246.5687103271484	-216.0395965576172	722.8758544921875	-155.9184722900391	-341.0243835449219	315.2630615234375	-52.05044174194342	-235.6236724853516	626.0140991210938	124.4622497558593	-362.5939025878906	296.5054626464844	-139.3787689208985	-259.7199401855469	606.5487670898438	210.037124633789	-200.9023895263672	155.4755096435547	-99.04994964599614	-85.00453948974611	495.0076293945312	152.4425659179687	-431.6147155761719	293.4268798828125	-93.88205718994148	-337.3943786621094	597.809814453125	163.5681152343749	27.92945289611814	1185.68408203125	244.9701080322265	15.89074802398683	1199.794189453125	-142.8443450927735	82.08561706542964	1211.227905273438	300.0293579101562	63.93665695190432	1233.503540039062	-200.2417144775391	284.6909790039062	1040.359985351562	218.229248046875	272.4469299316406	1028.207763671875	298.7968444824219	251.7837219238282	1059.554809570312	-126.9070434570313	230.6187896728516	1047.47998046875	-203.8929595947266	329.4403991699219	1033.772338867188	-221.0510864257813	375.3256530761718	1029.645263671875	301.3245239257812	
704	5.858333333333333	153.8466949462891	1562.607666015625	111.7454452514648	137.9012451171875	1561.204467773438	-40.74678039550789	41.91501235961913	1632.640258789062	126.3141326904296	17.49690628051758	1647.18994140625	-20.54762840271006	-103.7123947143555	1549.432006835938	51.56949615478505	-68.50179290771484	1396.536254882812	46.98691940307608	-44.37101364135745	1482.1669921875	219.100128173828	-73.55910491943358	1508.27734375	-131.751434326172	-171.3051910400391	1260.519287109375	45.82798004150381	-320.0814514160156	1454.289672851562	47.19630432128893	-523.6165161132812	1270.800415039062	115.546417236328	-526.26806640625	1264.216186523438	-6.278667449951314	-375.4187622070312	1204.932006835938	176.9674987792967	-381.6623229980469	1180.93701171875	-67.80378723144543	-37.77830886840822	934.9619750976562	132.9192962646484	-212.659912109375	674.098388671875	-47.00115966796882	-46.76543045043948	969.9696044921875	245.6655120849609	-214.1813812255859	724.3261108398438	-156.4773864746095	-350.9792175292969	320.933837890625	-52.4038047790528	-227.5600738525391	620.1607666015625	124.684585571289	-372.2854614257812	302.48388671875	-139.8763275146485	-250.3990173339844	599.6618041992188	210.5731658935546	-212.6570739746094	160.0040435791016	-98.82014465332036	-73.64992523193361	491.7005920410156	152.3429718017578	-441.2512817382812	300.9801635742188	-93.9328918457032	-327.8045959472656	588.9661254882812	164.1725769042968	27.86993789672849	1185.758544921875	244.9004821777343	15.60736179351808	1199.533447265625	-142.8416748046876	82.04277801513668	1211.3232421875	299.9169311523437	63.56594467163088	1233.28076171875	-200.2486877441407	284.6255493164062	1040.428955078125	218.0717315673828	272.3935546874999	1028.303100585938	298.6187438964844	251.6773681640625	1059.521240234375	-127.0542755126954	230.4782104492188	1047.466552734375	-204.0209197998047	329.312255859375	1033.791870117188	-221.2155151367188	375.2640075683593	1029.743041992188	301.1377563476562	
